<svg width="24" height="24" viewBox="0 0 24 24" fill="none" xmlns="http://www.w3.org/2000/svg">
<path d="M8.75 12C8.75 10.2051 10.2051 8.75001 12 8.75001C13.7949 8.75001 15.25 10.2051 15.25 12C15.25 13.7949 13.7949 15.25 12 15.25C10.2051 15.25 8.75 13.7949 8.75 12Z" fill="black"/>
<path fill-rule="evenodd" clip-rule="evenodd" d="M11.4607 1.83852C11.7555 1.53348 12.2445 1.53348 12.5393 1.83852L15.1116 4.50001H18.75C19.1642 4.50001 19.5 4.83579 19.5 5.25001V8.8884L22.1615 11.4607C22.4665 11.7555 22.4665 12.2445 22.1615 12.5393L19.5 15.1116V18.75C19.5 19.1642 19.1642 19.5 18.75 19.5H15.1116L12.5393 22.1615C12.2445 22.4665 11.7555 22.4665 11.4607 22.1615L8.88839 19.5H5.25001C4.8358 19.5 4.50001 19.1642 4.50001 18.75V15.1116L1.83852 12.5393C1.53348 12.2445 1.53348 11.7555 1.83852 11.4607L4.50001 8.8884V5.25001C4.50001 4.83579 4.83579 4.50001 5.25001 4.50001H8.8884L11.4607 1.83852ZM12 7.25001C9.37665 7.25001 7.25 9.37666 7.25 12C7.25 14.6234 9.37665 16.75 12 16.75C14.6234 16.75 16.75 14.6234 16.75 12C16.75 9.37666 14.6234 7.25001 12 7.25001Z" fill="black"/>
</svg>
